<svg width="17" height="17" viewBox="0 0 17 17" fill="none" xmlns="http://www.w3.org/2000/svg">
<path fill-rule="evenodd" clip-rule="evenodd" d="M8.80957 0.356445C4.39129 0.356445 0.80957 3.93817 0.80957 8.35645C0.80957 12.7747 4.39129 16.3564 8.80957 16.3564C13.2278 16.3564 16.8096 12.7747 16.8096 8.35645C16.8096 3.93817 13.2278 0.356445 8.80957 0.356445ZM11.5439 3.76068C10.7711 3.00485 9.4913 2.88968 8.40214 3.07781C7.26476 3.27427 6.0347 3.84397 5.20837 4.83318C4.13815 6.1076 3.86178 7.93653 4.14217 9.52104C4.42059 11.0944 5.30165 12.6894 6.85747 13.2976L6.85746 13.2976L6.86445 13.3003C9.29581 14.2248 12.6318 12.5421 13.8584 9.20476C14.0116 8.78791 13.7979 8.32578 13.3811 8.17257C12.9642 8.01936 12.5021 8.23309 12.3489 8.64994C11.3456 11.3796 8.81856 12.3195 7.43954 11.7983C6.60696 11.4709 5.95048 10.5102 5.72585 9.2408C5.50295 7.9812 5.7587 6.67824 6.4405 5.86684L6.4405 5.86684L6.44215 5.86486C6.97019 5.23236 7.82193 4.81013 8.67588 4.66263C9.57739 4.50691 10.1984 4.69532 10.4185 4.90969C10.4454 4.93637 10.4991 5.01202 10.5196 5.21006C10.5403 5.40985 10.519 5.66672 10.4585 5.95855C10.3372 6.54389 10.0933 7.10836 9.99136 7.30638C9.87174 7.53877 9.643 7.95522 9.34385 8.29891C9.02158 8.66915 8.7784 8.77316 8.63503 8.76891C8.55251 8.7629 8.4719 8.74113 8.39756 8.70475C8.32121 8.66738 8.25298 8.61535 8.19675 8.55163C8.14053 8.48791 8.0974 8.41373 8.06983 8.33332C8.04226 8.25292 8.03081 8.16787 8.03611 8.08305C8.04141 7.99823 8.06336 7.91529 8.10073 7.83894C8.13809 7.7626 8.19012 7.69437 8.25385 7.63813C8.31757 7.58191 8.39175 7.53878 8.47216 7.51121C8.55258 7.48364 8.63762 7.47218 8.72242 7.47748C9.16567 7.50519 9.54745 7.16832 9.57516 6.72507C9.60286 6.28182 9.26599 5.90003 8.82274 5.87233C8.5271 5.85385 8.23074 5.8938 7.95058 5.98985C7.6704 6.08591 7.41187 6.23621 7.18977 6.43218C6.96767 6.62815 6.78635 6.86594 6.65615 7.13199C6.52595 7.39803 6.44943 7.68711 6.43095 7.98273C6.41248 8.27835 6.45241 8.57472 6.54847 8.8549C6.64452 9.13508 6.79482 9.3936 6.9908 9.61571C7.18678 9.83782 7.42457 10.0191 7.69061 10.1493C7.95666 10.2795 8.24574 10.356 8.54135 10.3745L8.54135 10.3746L8.553 10.3752C9.46774 10.419 10.1533 9.81856 10.557 9.35482C10.9875 8.86018 11.2875 8.3025 11.4213 8.0424C11.5729 7.74792 11.8758 7.04494 12.0333 6.28496C12.1123 5.90414 12.1634 5.46889 12.1193 5.04423C12.0753 4.61899 11.9276 4.13759 11.5451 3.76188L11.5439 3.76068Z" fill="white"/>
</svg>
